:SAMPLES-PER-SECOND 30
:FULLY-SPECIFIED
:DEGREES
238
root  -10.4221 40.5888 6.62333 -177.913 -46.7379 178.209
RightUpLeg  -12.7251 -5.87683 -5.35705
RightLeg  8.76239 11.3601 2.18637
RightFoot  3.16726 -0.407789 3.3721
RightToes  -2.9104e-010 0 -3.6325e-017
Spine  13.5563 0.0654807 4.02846
Spine1  21.4347 1.51234 -2.5349
HEad  -3.4318 10.9723 7.47191
LeftShoulder1  9.14879 -14.5834 -44.0355
LeftArm  -10.5147 3.85921 -26.4679
LeftForeArm  39.2885 -39.579 -6.78678
LeftHand  -0.244104 0.0205437 5.32207
RightShoulder  5.6698 11.001 33.1434
RightArm  -21.9133 36.6804 18.7226
RightForeArm  19.6386 74.9663 48.5648
RightHand  -0.889074 2.65432 -13.0056
LeftUpLeg  -5.11954 14.7786 8.11102
LeftLeg  10.9957 25.1281 0.288173
LeftFoot  -0.501675 0.406234 -4.24987
LeftToes  -1.62803e-010 -2.57217e-011 -2.5681e-011
239
root  -10.3933 40.5908 6.50706 -177.479 -45.8446 177.945
RightUpLeg  -13.1545 -5.68812 -5.22896
RightLeg  8.93936 11.9277 2.23405
RightFoot  3.0934 -0.407222 3.38105
RightToes  -2.9104e-010 0 -3.6325e-017
Spine  13.7096 -0.156604 3.98862
Spine1  21.5742 1.0505 -1.99259
HEad  -4.55491 11.5633 6.8122
LeftShoulder1  9.12824 -14.6133 -43.8549
LeftArm  -10.008 3.5471 -27.2451
LeftForeArm  39.9606 -39.9976 -6.86687
LeftHand  -0.244104 0.0205437 5.32207
RightShoulder  5.67264 10.9094 33.4106
RightArm  -24.2069 35.8749 17.2058
RightForeArm  22.089 75.5924 51.7642
RightHand  -0.925764 2.62189 -13.5804
LeftUpLeg  -4.8332 14.1613 8.22815
LeftLeg  10.5598 26.5903 -0.00126912
LeftFoot  -0.377271 0.431973 -4.4773
LeftToes  -1.62803e-010 -2.57217e-011 -2.5681e-011
240
root  -10.3676 40.5942 6.39036 -177.118 -45.1337 177.753
RightUpLeg  -13.4967 -5.48219 -5.08504
RightLeg  9.0728 12.3181 2.24506
RightFoot  3.01533 -0.408044 3.40185
RightToes  -2.9104e-010 0 -3.6325e-017
Spine  13.8913 -0.359751 4.11632
Spine1  21.7479 0.660311 -1.52198
HEad  -5.71061 12.2105 5.97309
LeftShoulder1  9.1272 -14.6254 -43.8187
LeftArm  -9.48211 3.2388 -27.8562
LeftForeArm  40.6027 -40.4459 -6.95853
LeftHand  -0.244104 0.0205437 5.32207
RightShoulder  5.63468 10.7995 33.4478
RightArm  -26.4443 34.9894 15.8541
RightForeArm  24.8333 76.1722 55.2335
RightHand  -0.956198 2.63351 -13.9991
LeftUpLeg  -4.5635 13.7457 8.36578
LeftLeg  10.0992 27.6756 -0.326736
LeftFoot  -0.253723 0.458275 -4.7056
LeftToes  -1.62803e-010 -2.57217e-011 -2.5681e-011
241
root  -10.3421 40.5992 6.27253 -176.77 -44.6283 177.649
RightUpLeg  -13.8461 -5.20727 -4.89078
RightLeg  9.19351 12.4729 2.19086
RightFoot  2.93495 -0.394577 3.30933
RightToes  -2.9104e-010 0 -3.6325e-017
Spine  14.045 -0.563182 4.3888
Spine1  21.8757 0.318092 -1.13068
HEad  -6.8656 12.9531 5.07858
LeftShoulder1  9.13254 -14.6144 -43.874
LeftArm  -9.03689 3.02038 -28.3127
LeftForeArm  41.29 -40.8871 -7.04674
LeftHand  -0.244104 0.0205437 5.32207
RightShoulder  5.57965 10.6836 33.3825
RightArm  -28.5319 34.0052 14.609
RightForeArm  28.4627 76.7066 58.7911
RightHand  -0.913924 2.5016 -13.6032
LeftUpLeg  -4.41749 13.5551 8.50876
LeftLeg  9.65681 28.3333 -0.624308
LeftFoot  -0.133746 0.487883 -4.96369
LeftToes  -1.62803e-010 -2.57217e-011 -2.5681e-011
242
root  -10.3128 40.6028 6.15218 -176.321 -44.3514 177.563
RightUpLeg  -14.3133 -4.93189 -4.69595
RightLeg  9.38203 12.4173 2.12517
RightFoot  2.82477 -0.363796 3.08165
RightToes  -2.9104e-010 0 -3.6325e-017
Spine  14.1128 -0.773235 4.71409
Spine1  21.9054 0.00750431 -0.834655
HEad  -8.04247 13.7454 4.17817
LeftShoulder1  9.14749 -14.6066 -43.9696
LeftArm  -8.67452 2.95948 -28.6292
LeftForeArm  41.8266 -41.1767 -7.10028
LeftHand  -0.244104 0.0205437 5.32207
RightShoulder  5.5476 10.5874 33.4236
RightArm  -30.4395 32.9369 13.3816
RightForeArm  32.749 77.2008 62.5913
RightHand  -0.837105 2.28456 -12.827
LeftUpLeg  -4.49614 13.294 8.58053
LeftLeg  9.27133 28.8581 -0.812646
LeftFoot  0.0153383 0.521674 -5.24663
LeftToes  -1.62803e-010 -2.57217e-011 -2.5681e-011
243
root  -10.2827 40.6033 6.02734 -175.841 -44.2601 177.459
RightUpLeg  -14.8086 -4.73942 -4.54409
RightLeg  9.67197 12.2594 2.1117
RightFoot  2.66065 -0.320407 2.75583
RightToes  -2.9104e-010 0 -3.6325e-017
Spine  14.1357 -0.976462 5.03547
Spine1  21.8841 -0.263086 -0.630413
HEad  -9.28419 14.5384 3.3082
LeftShoulder1  9.17483 -14.6128 -44.092
LeftArm  -8.34276 3.00302 -28.82
LeftForeArm  42.0301 -41.1814 -7.08966
LeftHand  -0.244104 0.0205437 5.32207
RightShoulder  5.54735 10.5272 33.5899
RightArm  -32.1511 31.802 12.2001
RightForeArm  36.9088 77.6197 66.6779
RightHand  -0.809181 2.19835 -12.5421
LeftUpLeg  -4.66475 12.898 8.60748
LeftLeg  8.92658 29.3574 -0.940797
LeftFoot  0.200118 0.551556 -5.46867
LeftToes  -1.62803e-010 -2.57217e-011 -2.5681e-011
244
root  -10.2598 40.6019 5.89736 -175.524 -44.2281 177.348
RightUpLeg  -15.1303 -4.60885 -4.43066
RightLeg  10.0426 12.1183 2.14385
RightFoot  2.44046 -0.274945 2.41194
RightToes  -2.9104e-010 0 -3.6325e-017
Spine  14.2392 -1.14191 5.33828
Spine1  21.8792 -0.455683 -0.50936
HEad  -10.6085 15.3263 2.50927
LeftShoulder1  9.19632 -14.6102 -44.2073
LeftArm  -8.05637 3.08507 -28.9529
LeftForeArm  41.9739 -40.9217 -7.01644
LeftHand  -0.244104 0.0205437 5.32207
RightShoulder  5.55758 10.4926 33.7597
RightArm  -33.6054 30.6144 11.1617
RightForeArm  40.6234 77.9373 70.7814
RightHand  -0.829495 2.23133 -12.7962
LeftUpLeg  -4.63516 12.5829 8.69819
LeftLeg  8.56477 29.7046 -1.15413
LeftFoot  0.374108 0.571564 -5.59195
LeftToes  -1.62803e-010 -2.57217e-011 -2.5681e-011
245
root  -10.2479 40.5981 5.76157 -175.417 -44.164 177.216
RightUpLeg  -15.2403 -4.42623 -4.34941
RightLeg  10.5091 11.9894 2.15938
RightFoot  2.15536 -0.240251 2.15401
RightToes  -2.9104e-010 0 -3.6325e-017
Spine  14.4627 -1.23444 5.5735
Spine1  21.9178 -0.544676 -0.441954
HEad  -12.0215 16.0824 1.7705
LeftShoulder1  9.20159 -14.5919 -44.2807
LeftArm  -7.84324 3.21542 -29.0779
LeftForeArm  41.7696 -40.4952 -6.90401
LeftHand  -0.244104 0.0205437 5.32207
RightShoulder  5.5575 10.4441 33.8963
RightArm  -34.7505 29.41 10.281
RightForeArm  44.2588 78.1761 74.7972
RightHand  -0.845773 2.24934 -13.0128
LeftUpLeg  -4.29952 12.3777 8.86406
LeftLeg  8.16148 29.9378 -1.47888
LeftFoot  0.49664 0.587688 -5.69605
LeftToes  -1.62803e-010 -2.57217e-011 -2.5681e-011
246
root  -10.2407 40.5889 5.61951 -175.37 -44.1224 177.023
RightUpLeg  -15.2982 -4.11632 -4.31779
RightLeg  11.122 11.7324 2.12557
RightFoot  1.7798 -0.220097 2.01885
RightToes  -2.9104e-010 0 -3.6325e-017
Spine  14.6992 -1.25521 5.66844
Spine1  21.9834 -0.567412 -0.377834
HEad  -13.4577 16.7471 1.08985
LeftShoulder1  9.20695 -14.5801 -44.3382
LeftArm  -7.66943 3.42814 -29.1387
LeftForeArm  41.4215 -39.9379 -6.76402
LeftHand  -0.244104 0.0205437 5.32207
RightShoulder  5.54837 10.3539 34.0881
RightArm  -35.5941 28.2624 9.51064
RightForeArm  47.9443 78.3525 78.7834
RightHand  -0.856547 2.30192 -13.0883
LeftUpLeg  -3.85966 12.0977 8.99209
LeftLeg  7.79108 30.2076 -1.74973
LeftFoot  0.58467 0.608603 -5.85871
LeftToes  -1.62803e-010 -2.57217e-011 -2.5681e-011
247
root  -10.2287 40.5732 5.47507 -175.261 -44.2404 176.774
RightUpLeg  -15.4263 -3.7448 -4.34716
RightLeg  11.8764 11.2484 2.08012
RightFoot  1.30704 -0.203029 1.91153
RightToes  -2.9104e-010 0 -3.6325e-017
Spine  14.8585 -1.25784 5.61553
Spine1  22.0053 -0.605484 -0.283287
HEad  -14.7025 17.3076 0.568511
LeftShoulder1  9.22172 -14.5768 -44.4214
LeftArm  -7.51195 3.72791 -29.0738
LeftForeArm  41.021 -39.243 -6.59076
LeftHand  -0.244104 0.0205437 5.32207
RightShoulder  5.54997 10.2557 34.3823
RightArm  -36.1694 27.2086 8.87567
RightForeArm  51.3098 78.4606 82.5309
RightHand  -0.888783 2.45788 -13.3114
LeftUpLeg  -3.57053 11.7633 9.011
LeftLeg  7.5741 30.3895 -1.82518
LeftFoot  0.672645 0.633044 -6.05247
LeftToes  -1.62803e-010 -2.57217e-011 -2.5681e-011
248
root  -10.2107 40.5534 5.33575 -175.124 -44.586 176.521
RightUpLeg  -15.5891 -3.44058 -4.41454
RightLeg  12.7101 10.5807 2.06356
RightFoot  0.769224 -0.173442 1.68316
RightToes  -2.9104e-010 0 -3.6325e-017
Spine  14.9727 -1.29168 5.4891
Spine1  21.9113 -0.711182 -0.135846
HEad  -15.5262 17.7984 0.299712
LeftShoulder1  9.23156 -14.5542 -44.5295
LeftArm  -7.37801 4.07665 -28.9329
LeftForeArm  40.7227 -38.4249 -6.38135
LeftHand  -0.244104 0.0205437 5.32207
RightShoulder  5.57575 10.2147 34.6869
RightArm  -36.5139 26.1729 8.44685
RightForeArm  54.3206 78.5155 85.8599
RightHand  -0.914065 2.51965 -13.5804
LeftUpLeg  -3.4594 11.6282 8.98785
LeftLeg  7.52987 30.1627 -1.77943
LeftFoot  0.749329 0.65286 -6.20504
LeftToes  -1.62803e-010 -2.57217e-011 -2.5681e-011
